<svg width="400" height="600" xmlns="http://www.w3.org/2000/svg">
 <!-- Created with SVG Editor - http://github.com/mzalive/SVG Editor/ -->

 <g>
  <title>background</title>
  <rect fill="none" id="canvas_background" height="602" width="402" y="-1" x="-1"/>
  <g display="none" overflow="visible" y="0" x="0" height="100%" width="100%" id="canvasGrid">
   <rect fill="url(#gridpattern)" stroke-width="0" y="0" x="0" height="100%" width="100%"/>
  </g>
 </g>
 <g>
  <title>Layer 1</title>
  <metadata transform="matrix(0.01085069392704302,0,0,0.01085069392704302,0,0) ">Created by potrace 1.15, written by Peter Selinger 2001-2017</metadata>
  <g stroke="null" id="svg_6">
   <g stroke="null" id="svg_4" fill="#000000" transform="matrix(0.06175944753453005,0,0,-0.05721632274378109,-15673.591671049157,-9501.109264709148) ">
    <path stroke="null" id="svg_5" d="m257858.233154,-166128.569962c-26,-18 -61,-50 -78,-71c-31,-38 -31,-40 -32,-162c-1,-118 -2,-126 -27,-158c-14,-19 -51,-49 -81,-65c-54,-31 -55,-31 -138,-22c-436,50 -926,-79 -1213,-321c-106,-89 -158,-145 -245,-259c-129,-170 -266,-421 -424,-776l-67,-151l-71,36c-65,33 -77,36 -148,35c-87,-2 -159,-22 -236,-65c-137,-77 -204,-234 -204,-476c0,-124 17,-209 59,-291c41,-82 94,-131 197,-185c143,-75 129,-38 129,-335c1,-247 2,-261 28,-357c36,-132 121,-305 209,-424c39,-53 103,-139 141,-191c136,-184 342,-373 519,-476l68,-39l0,-49l0,-49l-42,7c-113,17 -145,18 -169,5c-13,-7 -28,-12 -34,-10c-32,10 -136,0 -176,-18c-24,-11 -54,-21 -65,-21c-12,0 -62,-20 -112,-45c-143,-72 -240,-183 -333,-380c-49,-103 -73,-191 -109,-400c-17,-93 -39,-197 -50,-230c-10,-33 -22,-78 -26,-100c-8,-50 -76,-276 -111,-370c-14,-38 -48,-114 -76,-168c-61,-120 -223,-367 -241,-367c-15,0 -48,-35 -65,-68c-18,-34 9,-80 93,-160l73,-69l-15,-49c-11,-40 -31,-67 -106,-144c-73,-74 -95,-103 -100,-132c-13,-71 34,-106 101,-74l34,16l-18,-30c-10,-17 -39,-59 -65,-93c-37,-48 -47,-71 -48,-99c0,-65 48,-93 114,-68c30,11 31,10 11,-37c-20,-48 -19,-85 5,-116c26,-33 64,-42 101,-23c28,14 29,14 29,-12c1,-107 115,-120 174,-19c28,47 126,299 126,322c0,23 17,26 39,7l22,-17l-25,-110c-30,-134 -61,-229 -128,-394c-93,-229 -164,-299 -333,-327c-16,-3 -85,-24 -153,-46c-140,-47 -152,-59 -152,-147l0,-50l-77,-16c-43,-8 -103,-20 -133,-26c-88,-17 -137,-44 -210,-115c-84,-81 -109,-134 -117,-248c-5,-69 -2,-96 16,-155c31,-101 94,-203 177,-287c111,-112 205,-150 348,-142c70,5 102,13 197,53c63,26 151,58 196,70c76,22 84,22 125,8c127,-45 545,-6 681,63c164,83 215,236 152,450l-25,80l44,100c87,201 78,190 253,316c87,63 187,134 222,158c35,23 104,78 152,120l88,78l42,-9c83,-19 204,-85 252,-139c89,-98 140,-267 141,-460c1,-158 -28,-275 -78,-320c-19,-17 -41,-55 -56,-94c-15,-40 -31,-66 -42,-69c-10,-3 -23,-18 -28,-34c-6,-15 -27,-66 -47,-112c-41,-95 -37,-106 35,-96c46,7 51,1 25,-27c-18,-20 -5,-25 17,-5c7,6 -5,-10 -27,-38c-23,-27 -53,-61 -67,-75c-32,-29 -53,-98 -62,-206l-6,-81l43,-46c32,-33 59,-49 99,-61c112,-34 259,-49 485,-50c227,-1 275,4 403,46c57,18 68,27 135,104c139,163 154,185 172,244l18,59l61,-2c64,-1 122,20 133,49c3,8 -6,40 -20,72c-14,31 -33,82 -42,112c-10,30 -27,64 -40,75c-21,19 -41,83 -83,270c-19,88 -22,376 -4,490c34,215 65,426 82,561c11,82 25,184 32,227l13,77l61,29c33,16 71,41 83,57c20,26 22,36 16,88c-4,34 -15,72 -26,88c-16,22 -22,53 -28,151c-5,69 -11,129 -15,135c-3,6 -22,90 -41,187c-40,201 -61,289 -150,615c-65,237 -108,432 -120,548l-7,62l46,0c57,0 205,-50 350,-119c108,-50 110,-51 206,-51c150,0 274,38 400,123c25,17 122,105 215,197c156,152 179,172 283,229c62,34 121,61 130,59c10,-1 37,6 60,16c47,22 53,41 27,103c-9,20 -12,40 -8,44c173,155 179,158 388,199c128,26 147,32 175,60c27,27 27,90 0,115c-18,16 -32,17 -122,12c-57,-4 -140,-14 -185,-22c-46,-9 -98,-15 -115,-13c-30,3 -24,8 77,61c117,63 279,177 296,209c23,43 -7,107 -57,122c-39,12 -202,-61 -411,-186c-17,-10 31,43 107,119c194,194 213,232 146,299c-42,42 -69,43 -127,5c-49,-33 -254,-229 -288,-276c-39,-53 -3,13 49,90c60,90 104,176 125,247c14,50 14,60 1,91c-27,67 -101,78 -153,25c-34,-35 -165,-246 -245,-393c-26,-49 -54,-96 -62,-103c-21,-22 -28,52 -11,118c20,75 19,116 -5,166c-28,57 -83,81 -135,60c-44,-19 -75,-69 -75,-123c0,-40 -19,-144 -41,-226l-10,-37l-29,15c-16,8 -36,15 -44,15c-19,0 -60,-76 -52,-96c7,-17 -50,-133 -127,-261c-29,-48 -70,-127 -91,-175c-26,-59 -43,-85 -50,-79c-6,4 -33,13 -60,20c-62,15 -209,84 -328,154c-225,132 -377,192 -543,217c-142,21 -150,26 -55,34c142,12 381,46 450,63c92,22 189,69 308,148c121,80 223,177 357,338c53,65 112,127 129,138c38,23 97,24 235,4c94,-14 108,-14 159,0c132,39 243,128 336,269c95,146 132,262 115,367c-31,194 -197,359 -359,359c-50,0 -50,0 -50,33c0,18 18,123 41,233c22,109 47,237 55,284c66,388 56,727 -30,961c-50,136 -60,159 -125,269c-114,190 -280,374 -464,512l-98,73l-106,230c-57,127 -113,249 -123,272l-19,42l54,30c95,53 215,189 215,243c0,35 -12,36 -102,3c-90,-32 -229,-35 -316,-6c-31,11 -75,22 -97,26c-22,4 -57,13 -78,21c-57,21 -90,17 -143,-18z"/>
   </g>
  </g>
 </g>
</svg>