<svg width="682.147" height="1630.738" xmlns="http://www.w3.org/2000/svg">

 <g>
  <title>background</title>
  <rect fill="none" id="canvas_background" height="402" width="582" y="-1" x="-1"/>
 </g>
 <g>
  <title>Layer 1</title>
  <g id="svg_1">
   <polygon id="svg_2" points="324.777,427.962 362.633,427.962 384.017,374.31 337.406,347.455 296.413,374.31  "/>
   <path id="svg_3" d="m341.103,277.44c72.342,0 131.05,-58.677 131.05,-131.021c0,-72.402 -58.708,-131.05 -131.05,-131.05c-72.403,0 -131.052,58.648 -131.052,131.05c0.001,72.344 58.649,131.021 131.052,131.021z"/>
   <path id="svg_4" d="m485.863,311.012l-6.567,0l-0.433,2.031l-11.952,-2.166l1.336,-1.166l-44.126,-16.918c0,0 -23.987,54.657 -86.688,43.714l56.756,37.858l45.844,-40.022l-50.59,243.882l-22.072,-139.231l-42.559,0l-22.411,180.45l-0.316,-0.428l-48.463,-262.795l18.368,18.144l65.421,-37.858c-62.701,10.943 -86.715,-43.714 -86.715,-43.714l-44.158,16.918l0.318,0.314l-4.822,0.987l-5.69,0c-92.692,0 -168.642,75.153 -168.642,167.902l0,406.343c0,31.675 24.902,57.437 56.608,57.437c31.735,0 57.406,-25.762 57.406,-57.437l0,-366.414l29.222,0c0,0 0.65,956.779 0.65,1019.658c0,42.441 34.426,76.868 76.898,76.868c42.47,0 76.868,-34.426 76.868,-76.868l0,-592.081l31.497,0l0,592.081c0,42.441 34.457,76.868 76.898,76.868s77.252,-34.426 77.252,-76.868l0,-1019.658l29.516,0l0,366.415c0,31.675 25.671,57.437 57.348,57.437c31.704,0 56.578,-25.762 56.578,-57.437l0,-406.344c0.001,-92.749 -75.89,-167.902 -168.58,-167.902z"/>
  </g>
 </g>
</svg>