<?xml version="1.0"?><svg width="431.14218" height="779.29456" xmlns="http://www.w3.org/2000/svg">
 <title>curvy woman silhouette</title>
 <metadata id="metadata7">image/svg+xml</metadata>
 <g>
  <title>Layer 1</title>
  <g id="layer1">
   <path fill="#000000" stroke="#000000" stroke-width="1px" id="path2830" d="m410.32547,346.596008c-22.738739,-21.411011 -46.195892,-42.723022 -60.516815,-69.162994c-17.766418,-21.422028 -45.482574,-38.979019 -58.002136,-62.896011c-3.303192,-12.576004 8.025085,-30.143997 5.571503,-14.097c-4.410309,22.173996 -13.414246,59.317993 -6.574402,81.587006c11.657928,16.207977 18.47879,26.919983 21.011536,46.097992c8.264557,29.394989 12.465454,59.852997 4.731903,89.825012c-8.036102,31.138977 -15.419006,62.626984 -23.681519,93.586975c-3.21106,27.679016 3.924347,55.275024 0.50293,82.86499c-2.475677,11.387024 -7.276703,22.356018 -2.118988,33.662048c4.138763,14.143982 2.000732,29.977966 7.882813,43.325989c10.326416,7.229004 22.98526,16.93396 16.232513,29.453979c-7.189514,21.893982 15.312836,41.591003 11.979553,63.731018c4.355194,16.760986 -30.809937,25.690002 -41.397858,12.357971c-9.145233,-9.459961 -2.439575,-24.501953 -4.760986,-36.092957c0.18338,-17.113037 2.515778,-34.757019 -8.854614,-50.483032c-2.638,-13.637024 -6.338959,-19.458984 -11.34137,-2.672974c-11.506638,19.151001 -4.249969,41.079956 -10.694107,61.186951c0.029053,14.067017 3.010666,30.957031 -16.337738,37.094055c-9.858536,-1.264038 -17.6492,6.464966 -27.115005,6.654968c-8.733444,1.062988 -24.009171,-4.620972 -16.309692,-15.765991c5.40918,-14.921997 19.152039,-29.411987 22.164703,-45.155029c4.203903,-13.362976 8.257538,-26.377991 15.446045,-38.816956c5.416199,-30.790039 4.98439,-62.40802 5.361099,-93.444031c-5.522385,-16.169006 -15.445053,-31.122009 -20.022659,-47.635986c-5.169739,-18.565002 1.426682,-39.10199 -10.899521,-56.549011c-18.647079,-40.800995 -45.95845,-89.73999 -53.237152,-133.511993c-0.612137,-18.432983 -0.316589,-27.852997 3.46553,-45.669983c1.39563,-20.698029 22.627563,-38.928009 14.940109,-59.700012c-7.029236,15.583984 -10.332443,33.009003 -26.05101,44.362c-24.188515,23.407013 -45.553703,49.755005 -75.987457,67.794006c-11.142868,4.276001 -26.579399,-0.39502 -32.044777,11.406006c-19.842942,10.916992 -3.653976,-13.517029 3.400185,-16.475006c-13.461023,-4.187012 -24.267644,7.451996 -38.209983,4.828003c-17.239823,3.095978 -18.278689,-6.809021 -0.205587,-6.384003c16.527493,-2.369019 30.806153,-12.294006 48.580792,-9.756012c19.226364,3.516998 26.21994,-15.677002 36.837402,-25.299011c17.242439,-19.86499 26.562973,-43.442993 42.522003,-63.880981c14.571411,-30.050003 9.793442,-61.055008 11.755096,-93.335999c-0.842575,-11.389008 11.466599,-34.462006 30.071579,-32.790009c15.598343,-0.888 32.460068,2.419006 38.248962,-13.393997c4.364212,-10.844002 -4.642746,-20.401001 -7.726532,-30.2939c1.903595,-8.404099 -17.449829,-9.180496 -12.051682,-22.858002c-12.716919,-21.6605 -5.065521,-87.414698 31.209732,-83.610698c36.275238,-12.196099 52.421616,6.80805 63.526505,23.75c61.446594,88.395602 24.097321,137.401607 13.09964,138.343593c-10.997711,0.942001 -24.945953,52.257004 -27.729156,60.031021c-3.750061,20.935989 15.200592,-72.845016 33.997955,-73.362c19.647949,1.653 26.380615,20.810989 33.105255,32.888992c11.238159,31.417007 12.847168,61.809998 40.184631,85.848007c10.551819,26.661987 29.519501,55.728973 49.75058,78.437988c16.74649,-0.372009 34.233398,-0.578003 48.345947,8.406006c12.311157,-1.322021 39.745789,8.846985 12.735962,7.843994c-13.491394,2.513 -23.756714,-6.095001 -36.506683,-5.531006c-13.437286,-0.748993 24.357819,22.393005 3.200043,19.468018c-7.739563,-7.914001 -16.019165,-12.612 -28.78418,-12.093018c-4.506439,-0.86499 -8.821564,-1.932983 -12.700897,-4.118988z"/>
   <polyline id="svg_5" points="88.97841739712749,69.03875732421875 88.97841739712749,70.03875732421875 88.97841739712749,71.03875732421875 87.9765325790504,73.03875732421875 85.97276294289622,76.03875732421875 85.97276294289622,78.03875732421875 85.97276294289622,79.03875732421875 85.97276294289622,82.03875732421875 85.97276294289622,83.03875732421875 85.97276294289622,85.03875732421875 85.97276294289622,86.03875732421875 85.97276294289622,88.03875732421875 85.97276294289622,89.03875732421875 85.97276294289622,90.03875732421875 88.97841739712749,92.03875732421875 88.97841739712749,92.03875732421875 89.98030221520457,93.03875732421875 90.98218703328166,94.03875732421875 91.98407185135875,94.03875732421875 93.98784148751292,95.03875732421875 96.99349594174419,96.03875732421875 99.99915039597545,97.03875732421875 99.99915039597545,98.03875732421875 101.00103521405254,98.03875732421875 99.99915039597545,98.03875732421875 99.99915039597545,98.03875732421875 96.99349594174419,98.03875732421875 94.98972630559001,97.03875732421875 93.98784148751292,96.03875732421875 91.98407185135875,93.03875732421875 89.98030221520457,92.03875732421875 88.97841739712749,91.03875732421875 88.97841739712749,90.03875732421875 87.9765325790504,89.03875732421875 87.9765325790504,87.03875732421875 87.9765325790504,84.03875732421875 87.9765325790504,81.03875732421875 87.9765325790504,79.03875732421875 87.9765325790504,78.03875732421875 87.9765325790504,76.03875732421875 87.9765325790504,74.03875732421875 87.9765325790504,73.03875732421875 87.9765325790504,72.03875732421875 87.9765325790504,71.03875732421875 88.97841739712749,71.03875732421875 88.97841739712749,70.03875732421875 " opacity="0.5" stroke-linecap="round" stroke-width="1px" stroke="#000000" fill="#000000"/>
   <polyline id="svg_6" points="193.17443847714458,80.03875732421875 193.17443847714458,81.03875732421875 193.17443847714458,82.03875732421875 194.17632329522166,82.03875732421875 194.17632329522166,83.03875732421875 194.17632329522166,84.03875732421875 194.17632329522166,85.03875732421875 194.17632329522166,86.03875732421875 194.17632329522166,87.03875732421875 194.17632329522166,88.03875732421875 194.17632329522166,89.03875732421875 194.17632329522166,89.03875732421875 194.17632329522166,90.03875732421875 194.17632329522166,91.03875732421875 194.17632329522166,92.03875732421875 194.17632329522166,93.03875732421875 194.17632329522166,94.03875732421875 194.17632329522166,95.03875732421875 194.17632329522166,96.03875732421875 194.17632329522166,97.03875732421875 194.17632329522166,98.03875732421875 194.17632329522166,99.03875732421875 194.17632329522166,100.03875732421875 194.17632329522166,100.03875732421875 195.17820811329875,101.03875732421875 196.18009293137584,101.03875732421875 " opacity="0.5" stroke-linecap="round" stroke-width="1px" stroke="#000000" fill="#000000"/>
   <polyline id="svg_7" points="196.18009293137584,101.03875732421875 197.18197774945293,101.03875732421875 198.18386256753,101.03875732421875 199.1857473856071,101.03875732421875 199.1857473856071,102.03875732421875 199.1857473856071,103.03875732421875 198.18386256753,103.03875732421875 197.18197774945293,103.03875732421875 196.18009293137584,103.03875732421875 195.17820811329875,103.03875732421875 194.17632329522166,103.03875732421875 193.17443847714458,103.03875732421875 192.1725536590675,103.03875732421875 191.1706688409904,103.03875732421875 191.1706688409904,102.03875732421875 191.1706688409904,101.03875732421875 191.1706688409904,100.03875732421875 191.1706688409904,100.03875732421875 191.1706688409904,99.03875732421875 191.1706688409904,98.03875732421875 191.1706688409904,97.03875732421875 191.1706688409904,96.03875732421875 191.1706688409904,95.03875732421875 191.1706688409904,94.03875732421875 191.1706688409904,93.03875732421875 191.1706688409904,92.03875732421875 191.1706688409904,91.03875732421875 191.1706688409904,90.03875732421875 191.1706688409904,89.03875732421875 192.1725536590675,89.03875732421875 192.1725536590675,89.03875732421875 192.1725536590675,88.03875732421875 193.17443847714458,87.03875732421875 194.17632329522166,87.03875732421875 194.17632329522166,86.03875732421875 " opacity="0.5" stroke-linecap="round" stroke-width="1px" stroke="#000000" fill="#000000"/>
  </g>
  <path id="svg_3" d="m276.774475,67.372131l2.225525,11.627869l-2.225525,-11.627869z" stroke-width="1px" stroke="#000000" fill="#000000"/>
 </g>
</svg>