<svg width="431.14218" height="779.29456" xmlns="http://www.w3.org/2000/svg">
 <title>curvy woman silhouette</title>

 <metadata id="metadata7">image/svg+xml</metadata>
 <g>
  <title>background</title>
  <rect fill="none" id="canvas_background" height="402" width="582" y="-1" x="-1"/>
 </g>
 <g>
  <title>Layer 1</title>
  <path stroke="#000000" d="m359.356058,351.082945c-19.067505,-20.405762 -38.73743,-40.717172 -50.746205,-65.915794c-14.897972,-20.416255 -38.139278,-37.148953 -48.637519,-59.943039c-2.76988,-11.985556 6.729408,-28.728728 4.671965,-13.435145c-3.698253,21.13293 -11.248472,56.533017 -5.512944,77.756496c9.775724,15.447015 15.495336,25.656086 17.619166,43.933687c6.930215,28.014894 10.452867,57.042899 3.967921,85.607721c-6.738648,29.677003 -12.929566,59.68665 -19.85807,89.193067c-2.692625,26.379479 3.290752,52.679855 0.42173,78.974475c-2.075974,10.852399 -6.101856,21.306404 -1.776873,32.081615c3.470545,13.479919 1.677706,28.570493 6.610108,41.291833c8.65919,6.889598 19.274223,16.13891 13.611733,28.071105c-6.028751,20.866066 12.840529,39.63831 10.045417,60.738845c3.652032,15.974061 -25.835586,24.483853 -34.714056,11.777763c-7.668706,-9.015814 -2.045694,-23.351582 -3.992306,-34.398384c0.153773,-16.309582 2.109592,-33.125176 -7.425016,-48.112859c-2.212087,-12.996761 -5.315517,-18.54538 -9.510273,-2.547474c-9.64886,18.25186 -3.5638,39.151254 -8.967507,58.31422c0.02436,13.406573 2.52458,29.503596 -13.699965,35.352492c-8.26685,-1.204693 -14.799686,6.16143 -22.737213,6.342509c-7.323401,1.013083 -20.13282,-4.404015 -13.676443,-15.025776c4.535852,-14.221402 16.059888,-28.031086 18.586145,-43.034999c3.525177,-12.735578 6.924336,-25.139542 12.952241,-36.994492c4.541739,-29.344446 4.179646,-59.47796 4.495535,-89.056828c-4.630784,-15.409874 -12.95141,-29.66083 -16.789944,-45.399478c-4.335071,-17.693372 1.196338,-37.26615 -9.139761,-53.894031c-15.636455,-38.885381 -38.538325,-85.526693 -44.641858,-127.243595c-0.513308,-17.56756 -0.265476,-26.5453 2.90601,-43.525782c1.170302,-19.726247 18.974275,-37.100328 12.527978,-56.897092c-5.894341,14.852321 -8.664238,31.459235 -21.844999,42.279202c-20.283205,22.308059 -38.198924,47.41901 -63.719057,64.611078c-9.343821,4.075242 -22.288079,-0.376474 -26.871058,10.870488c-16.63924,10.404446 -3.064034,-12.882395 2.851219,-15.701498c-11.287708,-3.99043 -20.349568,7.102119 -32.040877,4.601325c-14.456401,2.950624 -15.327543,-6.489336 -0.172389,-6.084271c13.859079,-2.257794 25.832408,-11.716806 40.737281,-9.297965c16.122209,3.351867 21.986655,-14.940974 30.889895,-24.11122c14.458598,-18.932328 22.274302,-41.403349 35.6567,-60.881774c12.218814,-28.639151 8.212261,-58.188465 9.857205,-88.953861c-0.706543,-10.854295 9.615284,-32.844017 25.216437,-31.250517c13.079943,-0.846308 27.219298,2.305428 32.073555,-12.765151c3.659596,-10.334874 -3.893165,-19.443172 -6.479059,-28.8716c1.59625,-8.009527 -14.632505,-8.749475 -10.105901,-21.784816c-10.663737,-20.643538 -4.247686,-83.310575 26.170829,-79.685173c30.418498,-11.623492 43.95799,6.488412 53.269963,22.634936c51.525869,84.245422 20.206738,130.950598 10.984665,131.848352c-9.222098,0.897773 -20.918354,49.803541 -23.252199,57.212561c-3.144602,19.953044 12.746411,-69.424933 28.508883,-69.91765c16.475732,1.575392 22.121393,19.833913 27.76032,31.34486c9.423727,29.94197 10.772949,58.908008 33.696705,81.817432c8.848198,25.410208 24.753491,53.112502 41.718205,74.755322c14.042721,-0.354544 28.706319,-0.550863 40.540357,8.011347c10.323479,-1.259951 33.328709,8.431614 10.679702,7.475714c-11.313174,2.395015 -19.921129,-5.808839 -30.612579,-5.271329c-11.267792,-0.713825 20.42518,21.341657 2.683393,18.553995c-6.489994,-7.542437 -13.432829,-12.019866 -24.136891,-11.525252c-3.778862,-0.824379 -7.397302,-1.842226 -10.650303,-3.925594z" id="path2830" stroke-width="1px" fill="#000000"/>
  <rect id="svg_2" height="0" width="3" y="196.100405" x="95.071106" stroke-width="1.5" stroke="#000" fill="#fff"/>
 </g>
</svg>